<svg
  width="200"
  height="200"
  viewBox="0 0 120 120"
  xmlns="http://www.w3.org/2000/svg"
>
  <path
    d="M60 4
       C75 2, 98 10, 110 23
       C122 36, 118 54, 110 66
       C102 78, 96 86, 102 98
       C108 110, 96 116, 82 114
       C68 112, 57 108, 46 112
       C35 116, 20 116, 12 104
       C4 92, 6 78, 11 67
       C16 56, 16 46, 10 36
       C4 26, 10 14, 23 8
       C36 2, 47 6, 60 4
       Z"
    fill="none"
    stroke="currentColor"
    stroke-width="4"
    stroke-linecap="round"
    stroke-linejoin="round"
  />
</svg>
